<svg width="30" height="30" viewBox="0 0 30 30" fill="none" xmlns="http://www.w3.org/2000/svg">
<path d="M16.9972 4.69131H8.79324C8.24929 4.69131 7.72761 4.9074 7.34297 5.29203C6.95833 5.67667 6.74225 6.19835 6.74225 6.7423V23.1503C6.74225 23.6942 6.95833 24.2159 7.34297 24.6005C7.72761 24.9852 8.24929 25.2013 8.79324 25.2013H21.0992C21.6432 25.2013 22.1648 24.9852 22.5495 24.6005C22.9341 24.2159 23.1502 23.6942 23.1502 23.1503V10.8443M16.9972 4.69131L23.1502 10.8443M16.9972 4.69131V10.8443H23.1502M19.0482 15.9718H10.8442M19.0482 20.0738H10.8442M12.8952 11.8698H10.8442"  stroke-width="1.19641" stroke-linecap="round" stroke-linejoin="round"/>
<path d="M16.9972 4.6914H8.79318C8.24922 4.6914 7.72755 4.90749 7.34291 5.29212C6.95827 5.67676 6.74219 6.19844 6.74219 6.7424V23.1503C6.74219 23.6943 6.95827 24.216 7.34291 24.6006C7.72755 24.9853 8.24922 25.2013 8.79318 25.2013H21.0991C21.6431 25.2013 22.1648 24.9853 22.5494 24.6006C22.9341 24.216 23.1501 23.6943 23.1501 23.1503V10.8444M16.9972 4.6914L23.1501 10.8444M16.9972 4.6914V10.8444H23.1501M19.0482 15.9719H10.8442M19.0482 20.0739H10.8442M12.8952 11.8699H10.8442"  stroke-width="1.19641" stroke-linecap="round" stroke-linejoin="round"/>
</svg>
