<svg width="53" height="53" viewBox="0 0 53 53" fill="none" xmlns="http://www.w3.org/2000/svg">
<g filter="url(#filter0_dd)">
<rect x="11" y="6" width="31" height="31" rx="7.75" fill="white"/>
</g>
<path d="M27.7143 12.4287H20.8571C20.4025 12.4287 19.9664 12.6093 19.6449 12.9308C19.3234 13.2523 19.1428 13.6883 19.1428 14.143V27.8573C19.1428 28.3119 19.3234 28.748 19.6449 29.0695C19.9664 29.391 20.4025 29.5716 20.8571 29.5716H31.1428C31.5975 29.5716 32.0335 29.391 32.355 29.0695C32.6765 28.748 32.8571 28.3119 32.8571 27.8573V17.5716M27.7143 12.4287L32.8571 17.5716M27.7143 12.4287V17.5716H32.8571M29.4285 21.8573H22.5714M29.4285 25.2859H22.5714M24.2857 18.4287H22.5714"  stroke-linecap="round" stroke-linejoin="round"/>
<path d="M27.7143 12.4287H20.8571C20.4025 12.4287 19.9664 12.6093 19.6449 12.9308C19.3234 13.2523 19.1428 13.6883 19.1428 14.143V27.8573C19.1428 28.3119 19.3234 28.748 19.6449 29.0695C19.9664 29.391 20.4025 29.5716 20.8571 29.5716H31.1428C31.5975 29.5716 32.0335 29.391 32.355 29.0695C32.6765 28.748 32.8571 28.3119 32.8571 27.8573V17.5716M27.7143 12.4287L32.8571 17.5716M27.7143 12.4287V17.5716H32.8571M29.4285 21.8573H22.5714M29.4285 25.2859H22.5714M24.2857 18.4287H22.5714"  stroke-linecap="round" stroke-linejoin="round"/>
<defs>
<filter id="filter0_dd" x="0.666667" y="0.833333" width="51.6667" height="51.6667" filterUnits="userSpaceOnUse" color-interpolation-filters="sRGB">
<feFlood flood-opacity="0" result="BackgroundImageFix"/>
<feColorMatrix in="SourceAlpha" type="matrix" values="0 0 0 0 0 0 0 0 0 0 0 0 0 0 0 0 0 0 127 0"/>
<feOffset dy="5.16667"/>
<feGaussianBlur stdDeviation="5.16667"/>
<feColorMatrix type="matrix" values="0 0 0 0 0.196487 0 0 0 0 0.196487 0 0 0 0 0.279476 0 0 0 0.06 0"/>
<feBlend mode="multiply" in2="BackgroundImageFix" result="effect1_dropShadow"/>
<feColorMatrix in="SourceAlpha" type="matrix" values="0 0 0 0 0 0 0 0 0 0 0 0 0 0 0 0 0 0 127 0"/>
<feOffset dy="5.16667"/>
<feGaussianBlur stdDeviation="2.58333"/>
<feColorMatrix type="matrix" values="0 0 0 0 0.196487 0 0 0 0 0.196487 0 0 0 0 0.279476 0 0 0 0.08 0"/>
<feBlend mode="multiply" in2="effect1_dropShadow" result="effect2_dropShadow"/>
<feBlend mode="normal" in="SourceGraphic" in2="effect2_dropShadow" result="shape"/>
</filter>
</defs>
</svg>
