<svg width="31" height="31" viewBox="0 0 31 31" fill="none" xmlns="http://www.w3.org/2000/svg">
<path d="M5.53564 8.85704H25.4642M11.0714 8.85704V6.64275C11.0714 6.05549 11.3046 5.49228 11.7199 5.07702C12.1352 4.66176 12.6984 4.42847 13.2856 4.42847H17.7142C18.3015 4.42847 18.8647 4.66176 19.28 5.07702C19.6952 5.49228 19.9285 6.05549 19.9285 6.64275V8.85704M23.2499 8.85704V24.357C23.2499 24.9443 23.0166 25.5075 22.6014 25.9228C22.1861 26.338 21.6229 26.5713 21.0356 26.5713H9.96422C9.37695 26.5713 8.81374 26.338 8.39848 25.9228C7.98322 25.5075 7.74993 24.9443 7.74993 24.357V8.85704H23.2499Z" stroke="#303030" stroke-linecap="round" stroke-linejoin="round"/>
</svg>
