<svg width="53" height="53" viewBox="0 0 53 53" fill="none" xmlns="http://www.w3.org/2000/svg">
<g filter="url(#filter0_dd)">
<rect x="11" y="6" width="31" height="31" rx="7.75" fill="white"/>
</g>
<path d="M18.2856 15.857H33.7142M22.5714 15.857V14.1428C22.5714 13.6881 22.752 13.2521 23.0735 12.9306C23.395 12.6091 23.831 12.4285 24.2856 12.4285H27.7142C28.1689 12.4285 28.6049 12.6091 28.9264 12.9306C29.2479 13.2521 29.4285 13.6881 29.4285 14.1428V15.857M31.9999 15.857V27.857C31.9999 28.3117 31.8193 28.7477 31.4978 29.0692C31.1763 29.3907 30.7403 29.5713 30.2856 29.5713H21.7142C21.2596 29.5713 20.8235 29.3907 20.502 29.0692C20.1805 28.7477 19.9999 28.3117 19.9999 27.857V15.857H31.9999Z" stroke="#303030" stroke-linecap="round" stroke-linejoin="round"/>
<defs>
<filter id="filter0_dd" x="0.666667" y="0.833333" width="51.6667" height="51.6667" filterUnits="userSpaceOnUse" color-interpolation-filters="sRGB">
<feFlood flood-opacity="0" result="BackgroundImageFix"/>
<feColorMatrix in="SourceAlpha" type="matrix" values="0 0 0 0 0 0 0 0 0 0 0 0 0 0 0 0 0 0 127 0"/>
<feOffset dy="5.16667"/>
<feGaussianBlur stdDeviation="5.16667"/>
<feColorMatrix type="matrix" values="0 0 0 0 0.196487 0 0 0 0 0.196487 0 0 0 0 0.279476 0 0 0 0.06 0"/>
<feBlend mode="multiply" in2="BackgroundImageFix" result="effect1_dropShadow"/>
<feColorMatrix in="SourceAlpha" type="matrix" values="0 0 0 0 0 0 0 0 0 0 0 0 0 0 0 0 0 0 127 0"/>
<feOffset dy="5.16667"/>
<feGaussianBlur stdDeviation="2.58333"/>
<feColorMatrix type="matrix" values="0 0 0 0 0.196487 0 0 0 0 0.196487 0 0 0 0 0.279476 0 0 0 0.08 0"/>
<feBlend mode="multiply" in2="effect1_dropShadow" result="effect2_dropShadow"/>
<feBlend mode="normal" in="SourceGraphic" in2="effect2_dropShadow" result="shape"/>
</filter>
</defs>
</svg>
