<svg width="53" height="53" viewBox="0 0 53 53" fill="none" xmlns="http://www.w3.org/2000/svg">
<g filter="url(#filter0_dd)">
<rect x="11" y="6" width="31" height="31" rx="7.75" fill="white"/>
</g>
<path d="M36.4286 26.9999C36.4286 27.4546 36.2479 27.8906 35.9265 28.2121C35.605 28.5336 35.1689 28.7142 34.7143 28.7142H19.2857C18.831 28.7142 18.395 28.5336 18.0735 28.2121C17.752 27.8906 17.5714 27.4546 17.5714 26.9999V17.5714C17.5714 17.1167 17.752 16.6807 18.0735 16.3592C18.395 16.0377 18.831 15.8571 19.2857 15.8571H22.7143L24.4286 13.2856H29.5714L31.2857 15.8571H34.7143C35.1689 15.8571 35.605 16.0377 35.9265 16.3592C36.2479 16.6807 36.4286 17.1167 36.4286 17.5714V26.9999Z" stroke="#303030" stroke-linecap="round" stroke-linejoin="round"/>
<path d="M27 25.2856C28.8935 25.2856 30.4286 23.7506 30.4286 21.8571C30.4286 19.9635 28.8935 18.4285 27 18.4285C25.1064 18.4285 23.5714 19.9635 23.5714 21.8571C23.5714 23.7506 25.1064 25.2856 27 25.2856Z" stroke="#303030" stroke-linecap="round" stroke-linejoin="round"/>
<defs>
<filter id="filter0_dd" x="0.666667" y="0.833333" width="51.6667" height="51.6667" filterUnits="userSpaceOnUse" color-interpolation-filters="sRGB">
<feFlood flood-opacity="0" result="BackgroundImageFix"/>
<feColorMatrix in="SourceAlpha" type="matrix" values="0 0 0 0 0 0 0 0 0 0 0 0 0 0 0 0 0 0 127 0"/>
<feOffset dy="5.16667"/>
<feGaussianBlur stdDeviation="5.16667"/>
<feColorMatrix type="matrix" values="0 0 0 0 0.196487 0 0 0 0 0.196487 0 0 0 0 0.279476 0 0 0 0.06 0"/>
<feBlend mode="multiply" in2="BackgroundImageFix" result="effect1_dropShadow"/>
<feColorMatrix in="SourceAlpha" type="matrix" values="0 0 0 0 0 0 0 0 0 0 0 0 0 0 0 0 0 0 127 0"/>
<feOffset dy="5.16667"/>
<feGaussianBlur stdDeviation="2.58333"/>
<feColorMatrix type="matrix" values="0 0 0 0 0.196487 0 0 0 0 0.196487 0 0 0 0 0.279476 0 0 0 0.08 0"/>
<feBlend mode="multiply" in2="effect1_dropShadow" result="effect2_dropShadow"/>
<feBlend mode="normal" in="SourceGraphic" in2="effect2_dropShadow" result="shape"/>
</filter>
</defs>
</svg>
