<svg width="31" height="31" viewBox="0 0 31 31" fill="none" xmlns="http://www.w3.org/2000/svg">
<path d="M15.4999 5.53578C13.4445 5.53578 11.4732 6.3523 10.0198 7.80571C8.56641 9.25911 7.7499 11.2304 7.7499 13.2858V18.8215C7.7499 19.7024 7.39996 20.5472 6.77707 21.1701C6.15418 21.793 5.30936 22.1429 4.42847 22.1429H26.5713C25.6904 22.1429 24.8456 21.793 24.2227 21.1701C23.5998 20.5472 23.2499 19.7024 23.2499 18.8215V13.2858C23.2499 11.2304 22.4334 9.25911 20.98 7.80571C19.5266 6.3523 17.5553 5.53578 15.4999 5.53578ZM15.4999 5.53578V2.21436M17.4153 26.5715C17.2206 26.907 16.9412 27.1856 16.6051 27.3792C16.2689 27.5728 15.8878 27.6747 15.4999 27.6747C15.112 27.6747 14.7309 27.5728 14.3947 27.3792C14.0586 27.1856 13.7792 26.907 13.5845 26.5715"  stroke-linecap="round" stroke-linejoin="round"/>
</svg>
