<svg class="svg" width="31" height="31" viewBox="0 0 31 31" fill="none" xmlns="http://www.w3.org/2000/svg">
<path d="M25.4643 14.9464C25.4681 16.4077 25.1267 17.8492 24.4679 19.1535C23.6867 20.7165 22.4858 22.0312 20.9997 22.9502C19.5136 23.8693 17.801 24.3564 16.0536 24.3571C14.5923 24.3609 13.1508 24.0195 11.8465 23.3607L5.53577 25.4642L7.63934 19.1535C6.98051 17.8492 6.6391 16.4077 6.64291 14.9464C6.64359 13.1991 7.13073 11.4864 8.04978 10.0003C8.96882 8.51417 10.2835 7.31327 11.8465 6.5321C13.1508 5.87328 14.5923 5.53187 16.0536 5.53568H16.6072C18.9149 5.66299 21.0945 6.63702 22.7287 8.27127C24.363 9.90552 25.337 12.0851 25.4643 14.3928V14.9464Z"  stroke-linecap="round" stroke-linejoin="round"/>
</svg>
