<svg width="23" height="19" viewBox="0 0 23 19" fill="none" xmlns="http://www.w3.org/2000/svg">
<path d="M7.65148 14.333L11.5086 18.1902M11.5086 18.1902L15.3658 14.333M11.5086 18.1902V9.51158M20.0715 15.3841C20.9098 14.7946 21.5385 13.9532 21.8663 12.9822C22.1941 12.0112 22.2039 10.9609 21.8944 9.98392C21.5848 9.00691 20.972 8.15396 20.1448 7.54884C19.3177 6.94372 18.3192 6.61793 17.2943 6.61873H16.0793C15.7893 5.48846 15.2467 4.43872 14.4922 3.54852C13.7378 2.65832 12.7913 1.95087 11.7239 1.47943C10.6565 1.00798 9.49601 0.784825 8.32988 0.826761C7.16376 0.868697 6.02234 1.17463 4.99155 1.72153C3.96077 2.26843 3.06749 3.04205 2.37895 3.98413C1.69041 4.92622 1.22457 6.01224 1.01649 7.16041C0.808401 8.30859 0.8635 9.48902 1.17764 10.6128C1.49177 11.7366 2.05675 12.7745 2.83005 13.6484" stroke="white" stroke-width="0.870968" stroke-linecap="round" stroke-linejoin="round"/>
</svg>
