<svg width="31" height="31" viewBox="0 0 31 31" fill="none" xmlns="http://www.w3.org/2000/svg">
<path d="M11.0815 21.0488L15.51 25.4774M15.51 25.4774L19.9386 21.0488M15.51 25.4774V15.5131M25.3415 22.2556C26.304 21.5787 27.0258 20.6127 27.4022 19.4978C27.7785 18.3829 27.7898 17.1771 27.4344 16.0554C27.079 14.9336 26.3754 13.9543 25.4257 13.2596C24.476 12.5648 23.3296 12.1907 22.1529 12.1916H20.7579C20.4249 10.8939 19.8019 9.68867 18.9357 8.66659C18.0695 7.64451 16.9827 6.83226 15.7572 6.29097C14.5316 5.74968 13.1993 5.49346 11.8604 5.54161C10.5215 5.58976 9.21096 5.94102 8.02747 6.56894C6.84397 7.19686 5.81835 8.08509 5.02781 9.16674C4.23727 10.2484 3.70241 11.4953 3.4635 12.8136C3.22459 14.1319 3.28785 15.4872 3.64852 16.7775C4.0092 18.0677 4.65788 19.2594 5.54575 20.2627"  stroke-linecap="round" stroke-linejoin="round"/>
</svg>
