<svg width="24" height="24" viewBox="0 0 24 24" fill="none" xmlns="http://www.w3.org/2000/svg">
<path d="M3.57129 22.7139H20.3211C21.6426 22.7139 22.7139 21.6426 22.7139 20.3211V3.57129C22.7139 2.24977 21.6426 1.17847 20.3211 1.17847H3.57129C2.24977 1.17847 1.17847 2.24977 1.17847 3.57129V20.3211C1.17847 21.6426 2.24977 22.7139 3.57129 22.7139ZM3.57129 22.7139L16.7318 9.55336L22.7139 15.5354M9.55336 7.75874C9.55336 8.74988 8.74988 9.55336 7.75874 9.55336C6.7676 9.55336 5.96412 8.74988 5.96412 7.75874C5.96412 6.7676 6.7676 5.96412 7.75874 5.96412C8.74988 5.96412 9.55336 6.7676 9.55336 7.75874Z" stroke="#303030" stroke-width="1.19641" stroke-linecap="round" stroke-linejoin="round"/>
</svg>
