<svg class="svg" width="93" height="53" viewBox="0 0 93 53" fill="none" xmlns="http://www.w3.org/2000/svg">
<g filter="url(#filter0_dd)">
<rect x="11" y="6" width="31" height="31" rx="7.75" fill="white"/>
</g>
<path d="M29.5034 26.912V28H23.3594V26.912H25.8154V19.096C25.8154 18.8613 25.8234 18.624 25.8394 18.384L23.7994 20.136C23.73 20.1947 23.6607 20.232 23.5914 20.248C23.522 20.2587 23.458 20.2587 23.3994 20.248C23.3407 20.2373 23.2847 20.216 23.2314 20.184C23.1834 20.152 23.146 20.1173 23.1194 20.08L22.6714 19.464L26.0874 16.512H27.2474V26.912H29.5034Z" fill="#CD2A00"/>
<g filter="url(#filter1_dd)">
<rect x="51" y="6" width="31" height="31" rx="7.75" fill="white"/>
</g>
<path d="M61.2161 27.12C61.2161 26.9813 61.2401 26.8507 61.2881 26.728C61.3415 26.6053 61.4108 26.4987 61.4961 26.408C61.5868 26.3173 61.6935 26.2453 61.8161 26.192C61.9388 26.1387 62.0695 26.112 62.2081 26.112C62.3468 26.112 62.4775 26.1387 62.6001 26.192C62.7228 26.2453 62.8295 26.3173 62.9201 26.408C63.0108 26.4987 63.0828 26.6053 63.1361 26.728C63.1895 26.8507 63.2161 26.9813 63.2161 27.12C63.2161 27.264 63.1895 27.3973 63.1361 27.52C63.0828 27.6373 63.0108 27.7413 62.9201 27.832C62.8295 27.9227 62.7228 27.992 62.6001 28.04C62.4775 28.0933 62.3468 28.12 62.2081 28.12C62.0695 28.12 61.9388 28.0933 61.8161 28.04C61.6935 27.992 61.5868 27.9227 61.4961 27.832C61.4108 27.7413 61.3415 27.6373 61.2881 27.52C61.2401 27.3973 61.2161 27.264 61.2161 27.12ZM64.9974 27.12C64.9974 26.9813 65.0214 26.8507 65.0694 26.728C65.1227 26.6053 65.192 26.4987 65.2774 26.408C65.368 26.3173 65.4747 26.2453 65.5974 26.192C65.72 26.1387 65.8507 26.112 65.9894 26.112C66.128 26.112 66.2587 26.1387 66.3814 26.192C66.504 26.2453 66.6107 26.3173 66.7014 26.408C66.792 26.4987 66.864 26.6053 66.9174 26.728C66.9707 26.8507 66.9974 26.9813 66.9974 27.12C66.9974 27.264 66.9707 27.3973 66.9174 27.52C66.864 27.6373 66.792 27.7413 66.7014 27.832C66.6107 27.9227 66.504 27.992 66.3814 28.04C66.2587 28.0933 66.128 28.12 65.9894 28.12C65.8507 28.12 65.72 28.0933 65.5974 28.04C65.4747 27.992 65.368 27.9227 65.2774 27.832C65.192 27.7413 65.1227 27.6373 65.0694 27.52C65.0214 27.3973 64.9974 27.264 64.9974 27.12ZM68.7786 27.12C68.7786 26.9813 68.8026 26.8507 68.8506 26.728C68.904 26.6053 68.9733 26.4987 69.0586 26.408C69.1493 26.3173 69.256 26.2453 69.3786 26.192C69.5013 26.1387 69.632 26.112 69.7706 26.112C69.9093 26.112 70.04 26.1387 70.1626 26.192C70.2853 26.2453 70.392 26.3173 70.4826 26.408C70.5733 26.4987 70.6453 26.6053 70.6986 26.728C70.752 26.8507 70.7786 26.9813 70.7786 27.12C70.7786 27.264 70.752 27.3973 70.6986 27.52C70.6453 27.6373 70.5733 27.7413 70.4826 27.832C70.392 27.9227 70.2853 27.992 70.1626 28.04C70.04 28.0933 69.9093 28.12 69.7706 28.12C69.632 28.12 69.5013 28.0933 69.3786 28.04C69.256 27.992 69.1493 27.9227 69.0586 27.832C68.9733 27.7413 68.904 27.6373 68.8506 27.52C68.8026 27.3973 68.7786 27.264 68.7786 27.12Z" fill="#CD2A00"/>
<defs>
<filter id="filter0_dd" x="0.666667" y="0.833333" width="51.6667" height="51.6667" filterUnits="userSpaceOnUse" color-interpolation-filters="sRGB">
<feFlood flood-opacity="0" result="BackgroundImageFix"/>
<feColorMatrix in="SourceAlpha" type="matrix" values="0 0 0 0 0 0 0 0 0 0 0 0 0 0 0 0 0 0 127 0"/>
<feOffset dy="5.16667"/>
<feGaussianBlur stdDeviation="5.16667"/>
<feColorMatrix type="matrix" values="0 0 0 0 0.196487 0 0 0 0 0.196487 0 0 0 0 0.279476 0 0 0 0.06 0"/>
<feBlend mode="multiply" in2="BackgroundImageFix" result="effect1_dropShadow"/>
<feColorMatrix in="SourceAlpha" type="matrix" values="0 0 0 0 0 0 0 0 0 0 0 0 0 0 0 0 0 0 127 0"/>
<feOffset dy="5.16667"/>
<feGaussianBlur stdDeviation="2.58333"/>
<feColorMatrix type="matrix" values="0 0 0 0 0.196487 0 0 0 0 0.196487 0 0 0 0 0.279476 0 0 0 0.08 0"/>
<feBlend mode="multiply" in2="effect1_dropShadow" result="effect2_dropShadow"/>
<feBlend mode="normal" in="SourceGraphic" in2="effect2_dropShadow" result="shape"/>
</filter>
<filter id="filter1_dd" x="40.6667" y="0.833333" width="51.6667" height="51.6667" filterUnits="userSpaceOnUse" color-interpolation-filters="sRGB">
<feFlood flood-opacity="0" result="BackgroundImageFix"/>
<feColorMatrix in="SourceAlpha" type="matrix" values="0 0 0 0 0 0 0 0 0 0 0 0 0 0 0 0 0 0 127 0"/>
<feOffset dy="5.16667"/>
<feGaussianBlur stdDeviation="5.16667"/>
<feColorMatrix type="matrix" values="0 0 0 0 0.196487 0 0 0 0 0.196487 0 0 0 0 0.279476 0 0 0 0.06 0"/>
<feBlend mode="multiply" in2="BackgroundImageFix" result="effect1_dropShadow"/>
<feColorMatrix in="SourceAlpha" type="matrix" values="0 0 0 0 0 0 0 0 0 0 0 0 0 0 0 0 0 0 127 0"/>
<feOffset dy="5.16667"/>
<feGaussianBlur stdDeviation="2.58333"/>
<feColorMatrix type="matrix" values="0 0 0 0 0.196487 0 0 0 0 0.196487 0 0 0 0 0.279476 0 0 0 0.08 0"/>
<feBlend mode="multiply" in2="effect1_dropShadow" result="effect2_dropShadow"/>
<feBlend mode="normal" in="SourceGraphic" in2="effect2_dropShadow" result="shape"/>
</filter>
</defs>
</svg>
