<svg width="116" height="64" viewBox="0 0 116 64" fill="none" xmlns="http://www.w3.org/2000/svg">
<g filter="url(#filter0_dd)">
<rect x="16" y="6" width="84" height="32.0611" rx="3.20611" fill="#C1C1C8"/>
</g>
<path d="M60.6366 12.6641V19.6182H59.973C59.8704 19.6182 59.7838 19.6021 59.7133 19.5701C59.646 19.5348 59.5802 19.4771 59.5161 19.3969L55.8852 14.7609C55.9044 14.9725 55.914 15.1681 55.914 15.3476V19.6182H54.7743V12.6641H55.4524C55.5069 12.6641 55.5534 12.6673 55.5918 12.6737C55.6335 12.6769 55.6688 12.6866 55.6976 12.7026C55.7297 12.7154 55.7602 12.7363 55.789 12.7651C55.8179 12.7908 55.8499 12.826 55.8852 12.8709L59.5305 17.5262C59.5209 17.414 59.5129 17.3034 59.5065 17.1943C59.5001 17.0853 59.4969 16.9843 59.4969 16.8914V12.6641H60.6366ZM66.1551 14.684V19.6182H65.4289C65.2718 19.6182 65.1724 19.546 65.1307 19.4018L65.049 19.0074C64.847 19.2126 64.6242 19.3793 64.3805 19.5076C64.1368 19.6326 63.8499 19.6951 63.5197 19.6951C63.2503 19.6951 63.0115 19.6502 62.8031 19.5605C62.5979 19.4675 62.4248 19.3376 62.2837 19.1709C62.1426 19.0042 62.0352 18.807 61.9615 18.5794C61.891 18.3485 61.8557 18.0953 61.8557 17.8195V14.684H63.0436V17.8195C63.0436 18.1209 63.1125 18.355 63.2503 18.5217C63.3914 18.6852 63.6014 18.7669 63.8803 18.7669C64.0855 18.7669 64.2779 18.7221 64.4574 18.6323C64.637 18.5393 64.8069 18.4127 64.9672 18.2524V14.684H66.1551ZM70.5117 16.5836C70.5117 16.4297 70.4893 16.2854 70.4444 16.1508C70.4027 16.0129 70.3386 15.8927 70.252 15.7901C70.1655 15.6875 70.0549 15.6073 69.9202 15.5496C69.7888 15.4887 69.6349 15.4582 69.4585 15.4582C69.1155 15.4582 68.8446 15.556 68.6458 15.7516C68.4502 15.9472 68.3252 16.2245 68.2707 16.5836H70.5117ZM68.2466 17.3001C68.2658 17.5534 68.3107 17.773 68.3813 17.959C68.4518 18.1418 68.5448 18.294 68.6602 18.4159C68.7756 18.5345 68.9119 18.6243 69.069 18.6852C69.2293 18.7429 69.4056 18.7718 69.598 18.7718C69.7904 18.7718 69.9555 18.7493 70.0933 18.7044C70.2344 18.6595 70.3562 18.6098 70.4588 18.5553C70.5646 18.5008 70.656 18.4511 70.7329 18.4063C70.8131 18.3614 70.89 18.3389 70.9638 18.3389C71.0632 18.3389 71.1369 18.3758 71.185 18.4495L71.5265 18.8824C71.395 19.0363 71.2475 19.1661 71.084 19.2719C70.9205 19.3745 70.749 19.4579 70.5694 19.522C70.3931 19.5829 70.212 19.6262 70.026 19.6518C69.8433 19.6775 69.6653 19.6903 69.4922 19.6903C69.1491 19.6903 68.8301 19.6342 68.5352 19.522C68.2402 19.4066 67.9837 19.2382 67.7657 19.017C67.5477 18.7926 67.3762 18.5169 67.2511 18.1898C67.1261 17.8596 67.0636 17.4781 67.0636 17.0453C67.0636 16.7086 67.1181 16.3928 67.2271 16.0979C67.3361 15.7997 67.4916 15.5416 67.6936 15.3236C67.8988 15.1024 68.1472 14.9276 68.439 14.7994C68.7339 14.6711 69.0658 14.607 69.4345 14.607C69.7455 14.607 70.0324 14.6567 70.2953 14.7561C70.5582 14.8555 70.7842 15.0014 70.9734 15.1937C71.1626 15.3829 71.31 15.6169 71.4159 15.8959C71.5249 16.1716 71.5794 16.4874 71.5794 16.8433C71.5794 17.0228 71.5601 17.1447 71.5217 17.2088C71.4832 17.2697 71.4094 17.3001 71.3004 17.3001H68.2466ZM76.7972 14.684L74.8398 19.6182H73.7626L71.8052 14.684H72.7863C72.8761 14.684 72.9498 14.7048 73.0075 14.7465C73.0684 14.7882 73.1085 14.8411 73.1278 14.9052L74.08 17.5406C74.1313 17.6945 74.1762 17.8452 74.2146 17.9927C74.2531 18.1401 74.2868 18.2876 74.3156 18.4351C74.3477 18.2876 74.383 18.1401 74.4214 17.9927C74.4599 17.8452 74.5064 17.6945 74.5609 17.5406L75.5323 14.9052C75.5548 14.8411 75.5949 14.7882 75.6526 14.7465C75.7103 14.7048 75.7792 14.684 75.8594 14.684H76.7972ZM79.4633 14.607C79.8288 14.607 80.1606 14.6663 80.4588 14.785C80.7602 14.9036 81.0167 15.0719 81.2283 15.2899C81.4431 15.5079 81.6082 15.774 81.7236 16.0882C81.839 16.4024 81.8967 16.7535 81.8967 17.1414C81.8967 17.5326 81.839 17.8853 81.7236 18.1995C81.6082 18.5137 81.4431 18.7814 81.2283 19.0026C81.0167 19.2238 80.7602 19.3937 80.4588 19.5124C80.1606 19.631 79.8288 19.6903 79.4633 19.6903C79.0946 19.6903 78.7596 19.631 78.4582 19.5124C78.1568 19.3937 77.8987 19.2238 77.6839 19.0026C77.4723 18.7814 77.3072 18.5137 77.1886 18.1995C77.0731 17.8853 77.0154 17.5326 77.0154 17.1414C77.0154 16.7535 77.0731 16.4024 77.1886 16.0882C77.3072 15.774 77.4723 15.5079 77.6839 15.2899C77.8987 15.0719 78.1568 14.9036 78.4582 14.785C78.7596 14.6663 79.0946 14.607 79.4633 14.607ZM79.4633 18.7766C79.8737 18.7766 80.1767 18.6387 80.3722 18.363C80.571 18.0872 80.6704 17.6833 80.6704 17.1511C80.6704 16.6189 80.571 16.2133 80.3722 15.9343C80.1767 15.6554 79.8737 15.5159 79.4633 15.5159C79.0465 15.5159 78.7371 15.657 78.5351 15.9392C78.3364 16.2181 78.237 16.6221 78.237 17.1511C78.237 17.6801 78.3364 18.084 78.5351 18.363C78.7371 18.6387 79.0465 18.7766 79.4633 18.7766ZM58.838 27.684V32.6182H58.1118C57.9547 32.6182 57.8553 32.546 57.8137 32.4018L57.7319 32.0074C57.5299 32.2126 57.3071 32.3793 57.0634 32.5076C56.8198 32.6326 56.5328 32.6951 56.2026 32.6951C55.9333 32.6951 55.6944 32.6502 55.486 32.5605C55.2808 32.4675 55.1077 32.3376 54.9666 32.1709C54.8256 32.0042 54.7182 31.807 54.6444 31.5794C54.5739 31.3485 54.5386 31.0953 54.5386 30.8195V27.684H55.7265V30.8195C55.7265 31.1209 55.7954 31.355 55.9333 31.5217C56.0744 31.6852 56.2844 31.7669 56.5633 31.7669C56.7685 31.7669 56.9608 31.7221 57.1404 31.6323C57.3199 31.5393 57.4898 31.4127 57.6502 31.2524V27.684H58.838ZM63.0263 28.6458C62.9943 28.6971 62.9606 28.734 62.9254 28.7564C62.8901 28.7756 62.8452 28.7853 62.7907 28.7853C62.733 28.7853 62.6705 28.7692 62.6031 28.7372C62.539 28.7051 62.4637 28.6698 62.3771 28.6314C62.2905 28.5897 62.1912 28.5528 62.0789 28.5208C61.9699 28.4887 61.8401 28.4727 61.6894 28.4727C61.4554 28.4727 61.271 28.5224 61.1363 28.6218C61.0049 28.7211 60.9392 28.851 60.9392 29.0113C60.9392 29.1171 60.9728 29.2069 61.0402 29.2806C61.1107 29.3511 61.2021 29.4137 61.3143 29.4682C61.4297 29.5227 61.5595 29.5724 61.7038 29.6172C61.8481 29.6589 61.994 29.7054 62.1415 29.7567C62.2921 29.808 62.4396 29.8673 62.5839 29.9347C62.7282 29.9988 62.8564 30.0821 62.9686 30.1847C63.0841 30.2841 63.1754 30.4043 63.2428 30.5454C63.3133 30.6865 63.3486 30.8564 63.3486 31.0552C63.3486 31.2924 63.3053 31.5121 63.2187 31.714C63.1354 31.9128 63.0103 32.086 62.8436 32.2334C62.6769 32.3777 62.4701 32.4915 62.2232 32.5749C61.9795 32.655 61.6974 32.6951 61.3768 32.6951C61.2069 32.6951 61.0402 32.6791 60.8766 32.647C60.7163 32.6182 60.5608 32.5765 60.4102 32.522C60.2627 32.4675 60.1248 32.4034 59.9966 32.3296C59.8715 32.2559 59.7609 32.1757 59.6647 32.0892L59.9389 31.6371C59.9741 31.5826 60.0158 31.5409 60.0639 31.5121C60.112 31.4832 60.1729 31.4688 60.2466 31.4688C60.3204 31.4688 60.3893 31.4896 60.4534 31.5313C60.5208 31.573 60.5977 31.6179 60.6843 31.666C60.7708 31.714 60.8718 31.7589 60.9873 31.8006C61.1059 31.8423 61.255 31.8631 61.4345 31.8631C61.5756 31.8631 61.6958 31.8471 61.7952 31.815C61.8978 31.7798 61.9812 31.7349 62.0453 31.6804C62.1126 31.6259 62.1607 31.5634 62.1895 31.4928C62.2216 31.4191 62.2376 31.3437 62.2376 31.2668C62.2376 31.1514 62.2024 31.0568 62.1318 30.983C62.0645 30.9093 61.9731 30.8452 61.8577 30.7907C61.7455 30.7362 61.6157 30.6881 61.4682 30.6464C61.3239 30.6015 61.1748 30.5534 61.0209 30.5021C60.8702 30.4508 60.7212 30.3915 60.5737 30.3242C60.4294 30.2537 60.2995 30.1655 60.1841 30.0597C60.0719 29.9539 59.9805 29.824 59.91 29.6701C59.8427 29.5163 59.809 29.3303 59.809 29.1123C59.809 28.9103 59.8491 28.7179 59.9292 28.5352C60.0094 28.3524 60.1264 28.1937 60.2803 28.0591C60.4374 27.9212 60.6314 27.8122 60.8622 27.7321C61.0963 27.6487 61.3656 27.607 61.6702 27.607C62.01 27.607 62.3194 27.6631 62.5983 27.7753C62.8773 27.8876 63.1097 28.035 63.2957 28.2178L63.0263 28.6458ZM68.4939 27.684V32.6182H67.7677C67.6106 32.6182 67.5112 32.546 67.4696 32.4018L67.3878 32.0074C67.1858 32.2126 66.963 32.3793 66.7193 32.5076C66.4757 32.6326 66.1887 32.6951 65.8585 32.6951C65.5892 32.6951 65.3503 32.6502 65.1419 32.5605C64.9367 32.4675 64.7636 32.3376 64.6225 32.1709C64.4815 32.0042 64.3741 31.807 64.3003 31.5794C64.2298 31.3485 64.1945 31.0953 64.1945 30.8195V27.684H65.3824V30.8195C65.3824 31.1209 65.4513 31.355 65.5892 31.5217C65.7302 31.6852 65.9402 31.7669 66.2192 31.7669C66.4244 31.7669 66.6167 31.7221 66.7963 31.6323C66.9758 31.5393 67.1457 31.4127 67.306 31.2524V27.684H68.4939ZM72.2783 30.5118C71.9352 30.5278 71.6467 30.5582 71.4126 30.6031C71.1786 30.6448 70.991 30.6993 70.8499 30.7666C70.7089 30.834 70.6079 30.9125 70.547 31.0023C70.4861 31.0921 70.4556 31.1898 70.4556 31.2956C70.4556 31.504 70.5165 31.6531 70.6383 31.7429C70.7634 31.8327 70.9253 31.8776 71.1241 31.8776C71.3677 31.8776 71.5777 31.8343 71.7541 31.7477C71.9336 31.6579 72.1083 31.5233 72.2783 31.3437V30.5118ZM69.5563 28.3717C70.1238 27.8523 70.8067 27.5926 71.605 27.5926C71.8935 27.5926 72.1516 27.6407 72.3793 27.7369C72.6069 27.8298 72.7993 27.9613 72.9564 28.1312C73.1135 28.2979 73.2321 28.4983 73.3122 28.7324C73.3956 28.9664 73.4373 29.2229 73.4373 29.5018V32.6182H72.8986C72.7864 32.6182 72.6999 32.6021 72.639 32.5701C72.578 32.5348 72.5299 32.4659 72.4947 32.3633L72.3889 32.0074C72.2638 32.1196 72.142 32.219 72.0234 32.3056C71.9048 32.3889 71.7813 32.4595 71.6531 32.5172C71.5248 32.5749 71.387 32.6182 71.2395 32.647C71.0952 32.6791 70.9349 32.6951 70.7586 32.6951C70.5502 32.6951 70.3578 32.6679 70.1815 32.6134C70.0051 32.5556 69.8528 32.4707 69.7246 32.3585C69.5964 32.2463 69.497 32.1068 69.4264 31.9401C69.3559 31.7734 69.3206 31.5794 69.3206 31.3582C69.3206 31.2331 69.3415 31.1097 69.3832 30.9879C69.4248 30.8628 69.4922 30.7442 69.5851 30.632C69.6813 30.5198 69.8048 30.414 69.9554 30.3146C70.1061 30.2152 70.2905 30.1286 70.5085 30.0549C70.7297 29.9811 70.9862 29.9218 71.278 29.8769C71.5697 29.8289 71.9032 29.8 72.2783 29.7904V29.5018C72.2783 29.1716 72.2077 28.9279 72.0667 28.7708C71.9256 28.6105 71.722 28.5304 71.4559 28.5304C71.2635 28.5304 71.1032 28.5528 70.975 28.5977C70.8499 28.6426 70.7393 28.6939 70.6432 28.7516C70.547 28.8061 70.4588 28.8558 70.3786 28.9007C70.3017 28.9456 70.2151 28.968 70.119 28.968C70.0356 28.968 69.9651 28.9472 69.9074 28.9055C69.8496 28.8606 69.8032 28.8093 69.7679 28.7516L69.5563 28.3717ZM75.6765 28.54C75.8304 28.245 76.0132 28.0142 76.2248 27.8475C76.4364 27.6776 76.6865 27.5926 76.975 27.5926C77.2026 27.5926 77.3854 27.6423 77.5233 27.7417L77.4463 28.6314C77.4303 28.6891 77.4062 28.7308 77.3742 28.7564C77.3453 28.7789 77.3052 28.7901 77.2539 28.7901C77.2059 28.7901 77.1337 28.7821 77.0375 28.766C76.9446 28.75 76.8532 28.742 76.7634 28.742C76.632 28.742 76.5149 28.7612 76.4123 28.7997C76.3097 28.8382 76.2168 28.8943 76.1334 28.968C76.0533 29.0385 75.9811 29.1251 75.917 29.2277C75.8561 29.3303 75.7984 29.4473 75.7439 29.5788V32.6182H74.556V27.684H75.2533C75.3752 27.684 75.4601 27.7064 75.5082 27.7513C75.5563 27.793 75.5884 27.8699 75.6044 27.9821L75.6765 28.54ZM79.3752 27.684V32.6182H78.1826V27.684H79.3752ZM79.5387 26.246C79.5387 26.3486 79.5179 26.4448 79.4762 26.5346C79.4345 26.6243 79.3784 26.7029 79.3079 26.7702C79.2406 26.8376 79.1604 26.8921 79.0674 26.9337C78.9745 26.9722 78.8751 26.9914 78.7693 26.9914C78.6667 26.9914 78.5689 26.9722 78.4759 26.9337C78.3862 26.8921 78.3076 26.8376 78.2403 26.7702C78.1729 26.7029 78.1184 26.6243 78.0768 26.5346C78.0383 26.4448 78.0191 26.3486 78.0191 26.246C78.0191 26.1402 78.0383 26.0408 78.0768 25.9479C78.1184 25.8549 78.1729 25.7747 78.2403 25.7074C78.3076 25.6401 78.3862 25.5872 78.4759 25.5487C78.5689 25.507 78.6667 25.4862 78.7693 25.4862C78.8751 25.4862 78.9745 25.507 79.0674 25.5487C79.1604 25.5872 79.2406 25.6401 79.3079 25.7074C79.3784 25.7747 79.4345 25.8549 79.4762 25.9479C79.5179 26.0408 79.5387 26.1402 79.5387 26.246ZM82.7696 27.607C83.1351 27.607 83.4669 27.6663 83.7651 27.785C84.0665 27.9036 84.323 28.0719 84.5346 28.2899C84.7494 28.5079 84.9145 28.774 85.0299 29.0882C85.1453 29.4024 85.203 29.7535 85.203 30.1414C85.203 30.5326 85.1453 30.8853 85.0299 31.1995C84.9145 31.5137 84.7494 31.7814 84.5346 32.0026C84.323 32.2238 84.0665 32.3937 83.7651 32.5124C83.4669 32.631 83.1351 32.6903 82.7696 32.6903C82.4009 32.6903 82.0659 32.631 81.7645 32.5124C81.4631 32.3937 81.205 32.2238 80.9902 32.0026C80.7786 31.7814 80.6135 31.5137 80.4949 31.1995C80.3794 30.8853 80.3217 30.5326 80.3217 30.1414C80.3217 29.7535 80.3794 29.4024 80.4949 29.0882C80.6135 28.774 80.7786 28.5079 80.9902 28.2899C81.205 28.0719 81.4631 27.9036 81.7645 27.785C82.0659 27.6663 82.4009 27.607 82.7696 27.607ZM82.7696 31.7766C83.18 31.7766 83.483 31.6387 83.6785 31.363C83.8773 31.0872 83.9767 30.6833 83.9767 30.1511C83.9767 29.6189 83.8773 29.2133 83.6785 28.9343C83.483 28.6554 83.18 28.5159 82.7696 28.5159C82.3528 28.5159 82.0434 28.657 81.8414 28.9392C81.6427 29.2181 81.5433 29.6221 81.5433 30.1511C81.5433 30.6801 81.6427 31.084 81.8414 31.363C82.0434 31.6387 82.3528 31.7766 82.7696 31.7766Z" fill="#CD2A00"/>
<path d="M39.9542 28.7405V27.3207C39.9542 26.5676 39.6551 25.8453 39.1225 25.3127C38.59 24.7802 37.8677 24.481 37.1145 24.481H31.4352C30.682 24.481 29.9597 24.7802 29.4272 25.3127C28.8946 25.8453 28.5955 26.5676 28.5955 27.3207V28.7405M37.1145 18.8016C37.1145 20.3699 35.8432 21.6413 34.2748 21.6413C32.7065 21.6413 31.4352 20.3699 31.4352 18.8016C31.4352 17.2333 32.7065 15.9619 34.2748 15.9619C35.8432 15.9619 37.1145 17.2333 37.1145 18.8016Z" stroke="#303030" stroke-width="1.28244" stroke-linecap="round" stroke-linejoin="round"/>
<defs>
<filter id="filter0_dd" x="0.610687" y="0.87023" width="114.779" height="62.8397" filterUnits="userSpaceOnUse" color-interpolation-filters="sRGB">
<feFlood flood-opacity="0" result="BackgroundImageFix"/>
<feColorMatrix in="SourceAlpha" type="matrix" values="0 0 0 0 0 0 0 0 0 0 0 0 0 0 0 0 0 0 127 0"/>
<feOffset dy="10.2595"/>
<feGaussianBlur stdDeviation="7.69466"/>
<feColorMatrix type="matrix" values="0 0 0 0 0.196487 0 0 0 0 0.196487 0 0 0 0 0.279476 0 0 0 0.08 0"/>
<feBlend mode="multiply" in2="BackgroundImageFix" result="effect1_dropShadow"/>
<feColorMatrix in="SourceAlpha" type="matrix" values="0 0 0 0 0 0 0 0 0 0 0 0 0 0 0 0 0 0 127 0"/>
<feOffset dy="7.69466"/>
<feGaussianBlur stdDeviation="3.84733"/>
<feColorMatrix type="matrix" values="0 0 0 0 0.196487 0 0 0 0 0.196487 0 0 0 0 0.279476 0 0 0 0.08 0"/>
<feBlend mode="multiply" in2="effect1_dropShadow" result="effect2_dropShadow"/>
<feBlend mode="normal" in="SourceGraphic" in2="effect2_dropShadow" result="shape"/>
</filter>
</defs>
</svg>
