<svg width="58" height="53" viewBox="0 0 58 53" fill="none" xmlns="http://www.w3.org/2000/svg">
<g filter="url(#filter0_dd)">
<rect x="11" y="6" width="36" height="31" rx="7.75" fill="white"/>
</g>
<path d="M34.1428 10.8569V14.7141M23.8571 10.8569V14.7141M17.4286 18.5712H40.5714M20 12.7855H38C39.4202 12.7855 40.5714 13.649 40.5714 14.7141V28.2141C40.5714 29.2792 39.4202 30.1426 38 30.1426H20C18.5798 30.1426 17.4286 29.2792 17.4286 28.2141V14.7141C17.4286 13.649 18.5798 12.7855 20 12.7855Z" stroke="#303030" stroke-linecap="round" stroke-linejoin="round"/>
<path d="M22.943 26.31C23.023 26.31 23.086 26.333 23.132 26.379C23.18 26.423 23.204 26.482 23.204 26.556V27H20.228V26.754C20.228 26.704 20.238 26.652 20.258 26.598C20.28 26.542 20.314 26.492 20.36 26.448L21.677 25.128C21.787 25.016 21.885 24.909 21.971 24.807C22.059 24.705 22.132 24.604 22.19 24.504C22.248 24.404 22.292 24.303 22.322 24.201C22.354 24.097 22.37 23.988 22.37 23.874C22.37 23.77 22.355 23.679 22.325 23.601C22.295 23.521 22.252 23.454 22.196 23.4C22.142 23.346 22.076 23.306 21.998 23.28C21.922 23.252 21.836 23.238 21.74 23.238C21.652 23.238 21.57 23.251 21.494 23.277C21.42 23.301 21.354 23.336 21.296 23.382C21.238 23.426 21.189 23.478 21.149 23.538C21.109 23.598 21.079 23.664 21.059 23.736C21.025 23.828 20.981 23.889 20.927 23.919C20.873 23.949 20.795 23.956 20.693 23.94L20.303 23.871C20.333 23.663 20.391 23.481 20.477 23.325C20.563 23.167 20.67 23.036 20.798 22.932C20.928 22.826 21.076 22.747 21.242 22.695C21.41 22.641 21.59 22.614 21.782 22.614C21.982 22.614 22.165 22.644 22.331 22.704C22.497 22.762 22.639 22.845 22.757 22.953C22.875 23.061 22.967 23.191 23.033 23.343C23.099 23.495 23.132 23.664 23.132 23.85C23.132 24.01 23.108 24.158 23.06 24.294C23.014 24.43 22.951 24.56 22.871 24.684C22.793 24.808 22.701 24.928 22.595 25.044C22.489 25.16 22.378 25.278 22.262 25.398L21.284 26.397C21.378 26.369 21.471 26.348 21.563 26.334C21.657 26.318 21.746 26.31 21.83 26.31H22.943ZM27.8105 24.831C27.8105 25.209 27.7695 25.538 27.6875 25.818C27.6075 26.096 27.4955 26.326 27.3515 26.508C27.2095 26.69 27.0405 26.826 26.8445 26.916C26.6505 27.004 26.4405 27.048 26.2145 27.048C25.9885 27.048 25.7785 27.004 25.5845 26.916C25.3925 26.826 25.2255 26.69 25.0835 26.508C24.9415 26.326 24.8305 26.096 24.7505 25.818C24.6705 25.538 24.6305 25.209 24.6305 24.831C24.6305 24.451 24.6705 24.122 24.7505 23.844C24.8305 23.566 24.9415 23.336 25.0835 23.154C25.2255 22.972 25.3925 22.837 25.5845 22.749C25.7785 22.659 25.9885 22.614 26.2145 22.614C26.4405 22.614 26.6505 22.659 26.8445 22.749C27.0405 22.837 27.2095 22.972 27.3515 23.154C27.4955 23.336 27.6075 23.566 27.6875 23.844C27.7695 24.122 27.8105 24.451 27.8105 24.831ZM27.0455 24.831C27.0455 24.517 27.0225 24.257 26.9765 24.051C26.9305 23.845 26.8685 23.681 26.7905 23.559C26.7145 23.437 26.6265 23.352 26.5265 23.304C26.4265 23.254 26.3225 23.229 26.2145 23.229C26.1085 23.229 26.0055 23.254 25.9055 23.304C25.8075 23.352 25.7205 23.437 25.6445 23.559C25.5685 23.681 25.5075 23.845 25.4615 24.051C25.4175 24.257 25.3955 24.517 25.3955 24.831C25.3955 25.145 25.4175 25.405 25.4615 25.611C25.5075 25.817 25.5685 25.981 25.6445 26.103C25.7205 26.225 25.8075 26.311 25.9055 26.361C26.0055 26.409 26.1085 26.433 26.2145 26.433C26.3225 26.433 26.4265 26.409 26.5265 26.361C26.6265 26.311 26.7145 26.225 26.7905 26.103C26.8685 25.981 26.9305 25.817 26.9765 25.611C27.0225 25.405 27.0455 25.145 27.0455 24.831ZM31.9039 26.31C31.9839 26.31 32.0469 26.333 32.0929 26.379C32.1409 26.423 32.1649 26.482 32.1649 26.556V27H29.1889V26.754C29.1889 26.704 29.1989 26.652 29.2189 26.598C29.2409 26.542 29.2749 26.492 29.3209 26.448L30.6379 25.128C30.7479 25.016 30.8459 24.909 30.9319 24.807C31.0199 24.705 31.0929 24.604 31.1509 24.504C31.2089 24.404 31.2529 24.303 31.2829 24.201C31.3149 24.097 31.3309 23.988 31.3309 23.874C31.3309 23.77 31.3159 23.679 31.2859 23.601C31.2559 23.521 31.2129 23.454 31.1569 23.4C31.1029 23.346 31.0369 23.306 30.9589 23.28C30.8829 23.252 30.7969 23.238 30.7009 23.238C30.6129 23.238 30.5309 23.251 30.4549 23.277C30.3809 23.301 30.3149 23.336 30.2569 23.382C30.1989 23.426 30.1499 23.478 30.1099 23.538C30.0699 23.598 30.0399 23.664 30.0199 23.736C29.9859 23.828 29.9419 23.889 29.8879 23.919C29.8339 23.949 29.7559 23.956 29.6539 23.94L29.2639 23.871C29.2939 23.663 29.3519 23.481 29.4379 23.325C29.5239 23.167 29.6309 23.036 29.7589 22.932C29.8889 22.826 30.0369 22.747 30.2029 22.695C30.3709 22.641 30.5509 22.614 30.7429 22.614C30.9429 22.614 31.1259 22.644 31.2919 22.704C31.4579 22.762 31.5999 22.845 31.7179 22.953C31.8359 23.061 31.9279 23.191 31.9939 23.343C32.0599 23.495 32.0929 23.664 32.0929 23.85C32.0929 24.01 32.0689 24.158 32.0209 24.294C31.9749 24.43 31.9119 24.56 31.8319 24.684C31.7539 24.808 31.6619 24.928 31.5559 25.044C31.4499 25.16 31.3389 25.278 31.2229 25.398L30.2449 26.397C30.3389 26.369 30.4319 26.348 30.5239 26.334C30.6179 26.318 30.7069 26.31 30.7909 26.31H31.9039ZM36.7714 24.831C36.7714 25.209 36.7304 25.538 36.6484 25.818C36.5684 26.096 36.4564 26.326 36.3124 26.508C36.1704 26.69 36.0014 26.826 35.8054 26.916C35.6114 27.004 35.4014 27.048 35.1754 27.048C34.9494 27.048 34.7394 27.004 34.5454 26.916C34.3534 26.826 34.1864 26.69 34.0444 26.508C33.9024 26.326 33.7914 26.096 33.7114 25.818C33.6314 25.538 33.5914 25.209 33.5914 24.831C33.5914 24.451 33.6314 24.122 33.7114 23.844C33.7914 23.566 33.9024 23.336 34.0444 23.154C34.1864 22.972 34.3534 22.837 34.5454 22.749C34.7394 22.659 34.9494 22.614 35.1754 22.614C35.4014 22.614 35.6114 22.659 35.8054 22.749C36.0014 22.837 36.1704 22.972 36.3124 23.154C36.4564 23.336 36.5684 23.566 36.6484 23.844C36.7304 24.122 36.7714 24.451 36.7714 24.831ZM36.0064 24.831C36.0064 24.517 35.9834 24.257 35.9374 24.051C35.8914 23.845 35.8294 23.681 35.7514 23.559C35.6754 23.437 35.5874 23.352 35.4874 23.304C35.3874 23.254 35.2834 23.229 35.1754 23.229C35.0694 23.229 34.9664 23.254 34.8664 23.304C34.7684 23.352 34.6814 23.437 34.6054 23.559C34.5294 23.681 34.4684 23.845 34.4224 24.051C34.3784 24.257 34.3564 24.517 34.3564 24.831C34.3564 25.145 34.3784 25.405 34.4224 25.611C34.4684 25.817 34.5294 25.981 34.6054 26.103C34.6814 26.225 34.7684 26.311 34.8664 26.361C34.9664 26.409 35.0694 26.433 35.1754 26.433C35.2834 26.433 35.3874 26.409 35.4874 26.361C35.5874 26.311 35.6754 26.225 35.7514 26.103C35.8294 25.981 35.8914 25.817 35.9374 25.611C35.9834 25.405 36.0064 25.145 36.0064 24.831Z" fill="#CD2A00"/>
<defs>
<filter id="filter0_dd" x="0.666667" y="0.833333" width="56.6667" height="51.6667" filterUnits="userSpaceOnUse" color-interpolation-filters="sRGB">
<feFlood flood-opacity="0" result="BackgroundImageFix"/>
<feColorMatrix in="SourceAlpha" type="matrix" values="0 0 0 0 0 0 0 0 0 0 0 0 0 0 0 0 0 0 127 0"/>
<feOffset dy="5.16667"/>
<feGaussianBlur stdDeviation="5.16667"/>
<feColorMatrix type="matrix" values="0 0 0 0 0.196487 0 0 0 0 0.196487 0 0 0 0 0.279476 0 0 0 0.06 0"/>
<feBlend mode="multiply" in2="BackgroundImageFix" result="effect1_dropShadow"/>
<feColorMatrix in="SourceAlpha" type="matrix" values="0 0 0 0 0 0 0 0 0 0 0 0 0 0 0 0 0 0 127 0"/>
<feOffset dy="5.16667"/>
<feGaussianBlur stdDeviation="2.58333"/>
<feColorMatrix type="matrix" values="0 0 0 0 0.196487 0 0 0 0 0.196487 0 0 0 0 0.279476 0 0 0 0.08 0"/>
<feBlend mode="multiply" in2="effect1_dropShadow" result="effect2_dropShadow"/>
<feBlend mode="normal" in="SourceGraphic" in2="effect2_dropShadow" result="shape"/>
</filter>
</defs>
</svg>
