<svg width="58" height="55" viewBox="0 0 58 55" fill="none" xmlns="http://www.w3.org/2000/svg">
<g filter="url(#filter0_dd)">
<rect x="11" y="6" width="36" height="33" rx="7.75" fill="white"/>
</g>
<path d="M34.1428 11.1704V15.2764M23.8571 11.1704V15.2764M17.4286 19.3824H40.5714M20 13.2234H38C39.4202 13.2234 40.5714 14.1426 40.5714 15.2764V29.6474C40.5714 30.7812 39.4202 31.7004 38 31.7004H20C18.5798 31.7004 17.4286 30.7812 17.4286 29.6474V15.2764C17.4286 14.1426 18.5798 13.2234 20 13.2234Z" stroke="#303030" stroke-linecap="round" stroke-linejoin="round"/>
<path d="M22.943 27.6205C23.023 27.6205 23.086 27.645 23.132 27.6939C23.18 27.7408 23.204 27.8036 23.204 27.8824V28.355H20.228V28.0931C20.228 28.0399 20.238 27.9846 20.258 27.9271C20.28 27.8675 20.314 27.8142 20.36 27.7674L21.677 26.3622C21.787 26.243 21.885 26.1291 21.971 26.0205C22.059 25.9119 22.132 25.8044 22.19 25.698C22.248 25.5915 22.292 25.484 22.322 25.3754C22.354 25.2647 22.37 25.1487 22.37 25.0273C22.37 24.9166 22.355 24.8197 22.325 24.7367C22.295 24.6516 22.252 24.5802 22.196 24.5227C22.142 24.4653 22.076 24.4227 21.998 24.395C21.922 24.3652 21.836 24.3503 21.74 24.3503C21.652 24.3503 21.57 24.3641 21.494 24.3918C21.42 24.4174 21.354 24.4546 21.296 24.5036C21.238 24.5504 21.189 24.6058 21.149 24.6696C21.109 24.7335 21.079 24.8038 21.059 24.8804C21.025 24.9784 20.981 25.0433 20.927 25.0752C20.873 25.1072 20.795 25.1146 20.693 25.0976L20.303 25.0241C20.333 24.8027 20.391 24.609 20.477 24.4429C20.563 24.2747 20.67 24.1353 20.798 24.0246C20.928 23.9117 21.076 23.8276 21.242 23.7723C21.41 23.7148 21.59 23.686 21.782 23.686C21.982 23.686 22.165 23.718 22.331 23.7818C22.497 23.8436 22.639 23.9319 22.757 24.0469C22.875 24.1619 22.967 24.3003 23.033 24.4621C23.099 24.6239 23.132 24.8038 23.132 25.0018C23.132 25.1721 23.108 25.3296 23.06 25.4744C23.014 25.6192 22.951 25.7576 22.871 25.8896C22.793 26.0216 22.701 26.1493 22.595 26.2728C22.489 26.3963 22.378 26.5219 22.262 26.6496L21.284 27.7131C21.378 27.6833 21.471 27.6609 21.563 27.646C21.657 27.629 21.746 27.6205 21.83 27.6205H22.943Z" fill="#CD2A00"/>
<path d="M27.8105 26.0461C27.8105 26.4485 27.7695 26.7987 27.6875 27.0967C27.6075 27.3927 27.4955 27.6375 27.3515 27.8313C27.2095 28.025 27.0405 28.1698 26.8445 28.2656C26.6505 28.3593 26.4405 28.4061 26.2145 28.4061C25.9885 28.4061 25.7785 28.3593 25.5845 28.2656C25.3925 28.1698 25.2255 28.025 25.0835 27.8313C24.9415 27.6375 24.8305 27.3927 24.7505 27.0967C24.6705 26.7987 24.6305 26.4485 24.6305 26.0461C24.6305 25.6416 24.6705 25.2913 24.7505 24.9954C24.8305 24.6995 24.9415 24.4546 25.0835 24.2609C25.2255 24.0671 25.3925 23.9234 25.5845 23.8297C25.7785 23.7339 25.9885 23.686 26.2145 23.686C26.4405 23.686 26.6505 23.7339 26.8445 23.8297C27.0405 23.9234 27.2095 24.0671 27.3515 24.2609C27.4955 24.4546 27.6075 24.6995 27.6875 24.9954C27.7695 25.2913 27.8105 25.6416 27.8105 26.0461ZM27.0455 26.0461C27.0455 25.7118 27.0225 25.435 26.9765 25.2157C26.9305 24.9965 26.8685 24.8219 26.7905 24.692C26.7145 24.5621 26.6265 24.4716 26.5265 24.4205C26.4265 24.3673 26.3225 24.3407 26.2145 24.3407C26.1085 24.3407 26.0055 24.3673 25.9055 24.4205C25.8075 24.4716 25.7205 24.5621 25.6445 24.692C25.5685 24.8219 25.5075 24.9965 25.4615 25.2157C25.4175 25.435 25.3955 25.7118 25.3955 26.0461C25.3955 26.3803 25.4175 26.6571 25.4615 26.8764C25.5075 27.0957 25.5685 27.2703 25.6445 27.4001C25.7205 27.53 25.8075 27.6216 25.9055 27.6748C26.0055 27.7259 26.1085 27.7514 26.2145 27.7514C26.3225 27.7514 26.4265 27.7259 26.5265 27.6748C26.6265 27.6216 26.7145 27.53 26.7905 27.4001C26.8685 27.2703 26.9305 27.0957 26.9765 26.8764C27.0225 26.6571 27.0455 26.3803 27.0455 26.0461Z" fill="#CD2A00"/>
<path d="M31.9039 27.6205C31.9839 27.6205 32.0469 27.645 32.0929 27.6939C32.1409 27.7408 32.1649 27.8036 32.1649 27.8824V28.355H29.1889V28.0931C29.1889 28.0399 29.1989 27.9846 29.2189 27.9271C29.2409 27.8675 29.2749 27.8142 29.3209 27.7674L30.6379 26.3622C30.7479 26.243 30.8459 26.1291 30.9319 26.0205C31.0199 25.9119 31.0929 25.8044 31.1509 25.698C31.2089 25.5915 31.2529 25.484 31.2829 25.3754C31.3149 25.2647 31.3309 25.1487 31.3309 25.0273C31.3309 24.9166 31.3159 24.8197 31.2859 24.7367C31.2559 24.6516 31.2129 24.5802 31.1569 24.5227C31.1029 24.4653 31.0369 24.4227 30.9589 24.395C30.8829 24.3652 30.7969 24.3503 30.7009 24.3503C30.6129 24.3503 30.5309 24.3641 30.4549 24.3918C30.3809 24.4174 30.3149 24.4546 30.2569 24.5036C30.1989 24.5504 30.1499 24.6058 30.1099 24.6696C30.0699 24.7335 30.0399 24.8038 30.0199 24.8804C29.9859 24.9784 29.9419 25.0433 29.8879 25.0752C29.8339 25.1072 29.7559 25.1146 29.6539 25.0976L29.2639 25.0241C29.2939 24.8027 29.3519 24.609 29.4379 24.4429C29.5239 24.2747 29.6309 24.1353 29.7589 24.0246C29.8889 23.9117 30.0369 23.8276 30.2029 23.7723C30.3709 23.7148 30.5509 23.686 30.7429 23.686C30.9429 23.686 31.1259 23.718 31.2919 23.7818C31.4579 23.8436 31.5999 23.9319 31.7179 24.0469C31.8359 24.1619 31.9279 24.3003 31.9939 24.4621C32.0599 24.6239 32.0929 24.8038 32.0929 25.0018C32.0929 25.1721 32.0689 25.3296 32.0209 25.4744C31.9749 25.6192 31.9119 25.7576 31.8319 25.8896C31.7539 26.0216 31.6619 26.1493 31.5559 26.2728C31.4499 26.3963 31.3389 26.5219 31.2229 26.6496L30.2449 27.7131C30.3389 27.6833 30.4319 27.6609 30.5239 27.646C30.6179 27.629 30.7069 27.6205 30.7909 27.6205H31.9039Z" fill="#CD2A00"/>
<path d="M36.7714 26.0461C36.7714 26.4485 36.7304 26.7987 36.6484 27.0967C36.5684 27.3927 36.4564 27.6375 36.3124 27.8313C36.1704 28.025 36.0014 28.1698 35.8054 28.2656C35.6114 28.3593 35.4014 28.4061 35.1754 28.4061C34.9494 28.4061 34.7394 28.3593 34.5454 28.2656C34.3534 28.1698 34.1864 28.025 34.0444 27.8313C33.9024 27.6375 33.7914 27.3927 33.7114 27.0967C33.6314 26.7987 33.5914 26.4485 33.5914 26.0461C33.5914 25.6416 33.6314 25.2913 33.7114 24.9954C33.7914 24.6995 33.9024 24.4546 34.0444 24.2609C34.1864 24.0671 34.3534 23.9234 34.5454 23.8297C34.7394 23.7339 34.9494 23.686 35.1754 23.686C35.4014 23.686 35.6114 23.7339 35.8054 23.8297C36.0014 23.9234 36.1704 24.0671 36.3124 24.2609C36.4564 24.4546 36.5684 24.6995 36.6484 24.9954C36.7304 25.2913 36.7714 25.6416 36.7714 26.0461ZM36.0064 26.0461C36.0064 25.7118 35.9834 25.435 35.9374 25.2157C35.8914 24.9965 35.8294 24.8219 35.7514 24.692C35.6754 24.5621 35.5874 24.4716 35.4874 24.4205C35.3874 24.3673 35.2834 24.3407 35.1754 24.3407C35.0694 24.3407 34.9664 24.3673 34.8664 24.4205C34.7684 24.4716 34.6814 24.5621 34.6054 24.692C34.5294 24.8219 34.4684 24.9965 34.4224 25.2157C34.3784 25.435 34.3564 25.7118 34.3564 26.0461C34.3564 26.3803 34.3784 26.6571 34.4224 26.8764C34.4684 27.0957 34.5294 27.2703 34.6054 27.4001C34.6814 27.53 34.7684 27.6216 34.8664 27.6748C34.9664 27.7259 35.0694 27.7514 35.1754 27.7514C35.2834 27.7514 35.3874 27.7259 35.4874 27.6748C35.5874 27.6216 35.6754 27.53 35.7514 27.4001C35.8294 27.2703 35.8914 27.0957 35.9374 26.8764C35.9834 26.6571 36.0064 26.3803 36.0064 26.0461Z" fill="#CD2A00"/>
<defs>
<filter id="filter0_dd" x="0.666667" y="0.833333" width="56.6667" height="53.6667" filterUnits="userSpaceOnUse" color-interpolation-filters="sRGB">
<feFlood flood-opacity="0" result="BackgroundImageFix"/>
<feColorMatrix in="SourceAlpha" type="matrix" values="0 0 0 0 0 0 0 0 0 0 0 0 0 0 0 0 0 0 127 0"/>
<feOffset dy="5.16667"/>
<feGaussianBlur stdDeviation="5.16667"/>
<feColorMatrix type="matrix" values="0 0 0 0 0.196487 0 0 0 0 0.196487 0 0 0 0 0.279476 0 0 0 0.06 0"/>
<feBlend mode="multiply" in2="BackgroundImageFix" result="effect1_dropShadow"/>
<feColorMatrix in="SourceAlpha" type="matrix" values="0 0 0 0 0 0 0 0 0 0 0 0 0 0 0 0 0 0 127 0"/>
<feOffset dy="5.16667"/>
<feGaussianBlur stdDeviation="2.58333"/>
<feColorMatrix type="matrix" values="0 0 0 0 0.196487 0 0 0 0 0.196487 0 0 0 0 0.279476 0 0 0 0.08 0"/>
<feBlend mode="multiply" in2="effect1_dropShadow" result="effect2_dropShadow"/>
<feBlend mode="normal" in="SourceGraphic" in2="effect2_dropShadow" result="shape"/>
</filter>
</defs>
</svg>
