<svg class="svg" width="93" height="8" viewBox="0 0 93 8" fill="none" xmlns="http://www.w3.org/2000/svg">
<path d="M4 8C6.20914 8 8 6.20914 8 4C8 1.79086 6.20914 0 4 0C1.79086 0 0 1.79086 0 4C0 6.20914 1.79086 8 4 8Z" fill="#C1C1C8"/>
<path d="M21 8C23.2091 8 25 6.20914 25 4C25 1.79086 23.2091 0 21 0C18.7909 0 17 1.79086 17 4C17 6.20914 18.7909 8 21 8Z" fill="#CD2A00"/>
<path d="M38 8C40.2091 8 42 6.20914 42 4C42 1.79086 40.2091 0 38 0C35.7909 0 34 1.79086 34 4C34 6.20914 35.7909 8 38 8Z" fill="#C1C1C8"/>
<path d="M55 8C57.2091 8 59 6.20914 59 4C59 1.79086 57.2091 0 55 0C52.7909 0 51 1.79086 51 4C51 6.20914 52.7909 8 55 8Z" fill="#C1C1C8"/>
<path d="M72 8C74.2091 8 76 6.20914 76 4C76 1.79086 74.2091 0 72 0C69.7909 0 68 1.79086 68 4C68 6.20914 69.7909 8 72 8Z" fill="#C1C1C8"/>
<path d="M89 8C91.2091 8 93 6.20914 93 4C93 1.79086 91.2091 0 89 0C86.7909 0 85 1.79086 85 4C85 6.20914 86.7909 8 89 8Z" fill="#C1C1C8"/>
</svg>
