<svg width="14" height="14" viewBox="0 0 14 14" fill="none" xmlns="http://www.w3.org/2000/svg">
<path d="M3.26729 5.13414V0.779297H10.7327V5.13414M3.26729 10.7332H2.02305C1.69306 10.7332 1.37658 10.6021 1.14324 10.3688C0.909898 10.1354 0.778809 9.81897 0.778809 9.48897V6.37837C0.778809 6.04838 0.909898 5.73191 1.14324 5.49856C1.37658 5.26522 1.69306 5.13414 2.02305 5.13414H11.977C12.307 5.13414 12.6234 5.26522 12.8568 5.49856C13.0901 5.73191 13.2212 6.04838 13.2212 6.37837V9.48897C13.2212 9.81897 13.0901 10.1354 12.8568 10.3688C12.6234 10.6021 12.307 10.7332 11.977 10.7332H10.7327M3.26729 8.24473H10.7327V13.2217H3.26729V8.24473Z" stroke-width="0.645161" stroke-linecap="round" stroke-linejoin="round"/>
</svg>
