<svg width="58" height="53" viewBox="0 0 58 53" fill="none" xmlns="http://www.w3.org/2000/svg">
<g filter="url(#filter0_dd)">
<rect x="11" y="6" width="36" height="31" rx="7.75" fill="white"/>
</g>
<path d="M34.1428 10.8569V14.7141M23.8571 10.8569V14.7141M17.4286 18.5712H40.5714M20 12.7855H38C39.4202 12.7855 40.5714 13.649 40.5714 14.7141V28.2141C40.5714 29.2792 39.4202 30.1426 38 30.1426H20C18.5798 30.1426 17.4286 29.2792 17.4286 28.2141V14.7141C17.4286 13.649 18.5798 12.7855 20 12.7855Z" stroke="#303030" stroke-linecap="round" stroke-linejoin="round"/>
<path d="M22.775 25.1925C22.775 25.5075 22.7408 25.7817 22.6725 26.015C22.6058 26.2467 22.5125 26.4383 22.3925 26.59C22.2742 26.7417 22.1333 26.855 21.97 26.93C21.8083 27.0033 21.6333 27.04 21.445 27.04C21.2567 27.04 21.0817 27.0033 20.92 26.93C20.76 26.855 20.6208 26.7417 20.5025 26.59C20.3842 26.4383 20.2917 26.2467 20.225 26.015C20.1583 25.7817 20.125 25.5075 20.125 25.1925C20.125 24.8758 20.1583 24.6017 20.225 24.37C20.2917 24.1383 20.3842 23.9467 20.5025 23.795C20.6208 23.6433 20.76 23.5308 20.92 23.4575C21.0817 23.3825 21.2567 23.345 21.445 23.345C21.6333 23.345 21.8083 23.3825 21.97 23.4575C22.1333 23.5308 22.2742 23.6433 22.3925 23.795C22.5125 23.9467 22.6058 24.1383 22.6725 24.37C22.7408 24.6017 22.775 24.8758 22.775 25.1925ZM22.1375 25.1925C22.1375 24.9308 22.1183 24.7142 22.08 24.5425C22.0417 24.3708 21.99 24.2342 21.925 24.1325C21.8617 24.0308 21.7883 23.96 21.705 23.92C21.6217 23.8783 21.535 23.8575 21.445 23.8575C21.3567 23.8575 21.2708 23.8783 21.1875 23.92C21.1058 23.96 21.0333 24.0308 20.97 24.1325C20.9067 24.2342 20.8558 24.3708 20.8175 24.5425C20.7808 24.7142 20.7625 24.9308 20.7625 25.1925C20.7625 25.4542 20.7808 25.6708 20.8175 25.8425C20.8558 26.0142 20.9067 26.1508 20.97 26.2525C21.0333 26.3542 21.1058 26.4258 21.1875 26.4675C21.2708 26.5075 21.3567 26.5275 21.445 26.5275C21.535 26.5275 21.6217 26.5075 21.705 26.4675C21.7883 26.4258 21.8617 26.3542 21.925 26.2525C21.99 26.1508 22.0417 26.0142 22.08 25.8425C22.1183 25.6708 22.1375 25.4542 22.1375 25.1925ZM25.4754 25.1925C25.4754 25.5075 25.4412 25.7817 25.3729 26.015C25.3062 26.2467 25.2129 26.4383 25.0929 26.59C24.9746 26.7417 24.8337 26.855 24.6704 26.93C24.5087 27.0033 24.3337 27.04 24.1454 27.04C23.9571 27.04 23.7821 27.0033 23.6204 26.93C23.4604 26.855 23.3212 26.7417 23.2029 26.59C23.0846 26.4383 22.9921 26.2467 22.9254 26.015C22.8587 25.7817 22.8254 25.5075 22.8254 25.1925C22.8254 24.8758 22.8587 24.6017 22.9254 24.37C22.9921 24.1383 23.0846 23.9467 23.2029 23.795C23.3212 23.6433 23.4604 23.5308 23.6204 23.4575C23.7821 23.3825 23.9571 23.345 24.1454 23.345C24.3337 23.345 24.5087 23.3825 24.6704 23.4575C24.8337 23.5308 24.9746 23.6433 25.0929 23.795C25.2129 23.9467 25.3062 24.1383 25.3729 24.37C25.4412 24.6017 25.4754 24.8758 25.4754 25.1925ZM24.8379 25.1925C24.8379 24.9308 24.8187 24.7142 24.7804 24.5425C24.7421 24.3708 24.6904 24.2342 24.6254 24.1325C24.5621 24.0308 24.4887 23.96 24.4054 23.92C24.3221 23.8783 24.2354 23.8575 24.1454 23.8575C24.0571 23.8575 23.9712 23.8783 23.8879 23.92C23.8062 23.96 23.7337 24.0308 23.6704 24.1325C23.6071 24.2342 23.5562 24.3708 23.5179 24.5425C23.4812 24.7142 23.4629 24.9308 23.4629 25.1925C23.4629 25.4542 23.4812 25.6708 23.5179 25.8425C23.5562 26.0142 23.6071 26.1508 23.6704 26.2525C23.7337 26.3542 23.8062 26.4258 23.8879 26.4675C23.9712 26.5075 24.0571 26.5275 24.1454 26.5275C24.2354 26.5275 24.3221 26.5075 24.4054 26.4675C24.4887 26.4258 24.5621 26.3542 24.6254 26.2525C24.6904 26.1508 24.7421 26.0142 24.7804 25.8425C24.8187 25.6708 24.8379 25.4542 24.8379 25.1925ZM26.1358 27.0075C26.1074 27.0842 26.0616 27.1417 25.9983 27.18C25.9366 27.2183 25.8733 27.2375 25.8083 27.2375H25.5458L27.0058 23.5025C27.0324 23.4325 27.0733 23.3792 27.1283 23.3425C27.1833 23.3042 27.2474 23.285 27.3208 23.285H27.5858L26.1358 27.0075ZM29.9824 26.425C30.049 26.425 30.1015 26.4442 30.1399 26.4825C30.1799 26.5192 30.1999 26.5683 30.1999 26.63V27H27.7199V26.795C27.7199 26.7533 27.7282 26.71 27.7449 26.665C27.7632 26.6183 27.7915 26.5767 27.8299 26.54L28.9274 25.44C29.019 25.3467 29.1007 25.2575 29.1724 25.1725C29.2457 25.0875 29.3065 25.0033 29.3549 24.92C29.4032 24.8367 29.4399 24.7525 29.4649 24.6675C29.4915 24.5808 29.5049 24.49 29.5049 24.395C29.5049 24.3083 29.4924 24.2325 29.4674 24.1675C29.4424 24.1008 29.4065 24.045 29.3599 24C29.3149 23.955 29.2599 23.9217 29.1949 23.9C29.1315 23.8767 29.0599 23.865 28.9799 23.865C28.9065 23.865 28.8382 23.8758 28.7749 23.8975C28.7132 23.9175 28.6582 23.9467 28.6099 23.985C28.5615 24.0217 28.5207 24.065 28.4874 24.115C28.454 24.165 28.429 24.22 28.4124 24.28C28.384 24.3567 28.3474 24.4075 28.3024 24.4325C28.2574 24.4575 28.1924 24.4633 28.1074 24.45L27.7824 24.3925C27.8074 24.2192 27.8557 24.0675 27.9274 23.9375C27.999 23.8058 28.0882 23.6967 28.1949 23.61C28.3032 23.5217 28.4265 23.4558 28.5649 23.4125C28.7049 23.3675 28.8549 23.345 29.0149 23.345C29.1815 23.345 29.334 23.37 29.4724 23.42C29.6107 23.4683 29.729 23.5375 29.8274 23.6275C29.9257 23.7175 30.0024 23.8258 30.0574 23.9525C30.1124 24.0792 30.1399 24.22 30.1399 24.375C30.1399 24.5083 30.1199 24.6317 30.0799 24.745C30.0415 24.8583 29.989 24.9667 29.9224 25.07C29.8574 25.1733 29.7807 25.2733 29.6924 25.37C29.604 25.4667 29.5115 25.565 29.4149 25.665L28.5999 26.4975C28.6782 26.4742 28.7557 26.4567 28.8324 26.445C28.9107 26.4317 28.9849 26.425 29.0549 26.425H29.9824ZM33.0053 25.1925C33.0053 25.5075 32.9711 25.7817 32.9028 26.015C32.8361 26.2467 32.7428 26.4383 32.6228 26.59C32.5044 26.7417 32.3636 26.855 32.2003 26.93C32.0386 27.0033 31.8636 27.04 31.6753 27.04C31.4869 27.04 31.3119 27.0033 31.1503 26.93C30.9903 26.855 30.8511 26.7417 30.7328 26.59C30.6144 26.4383 30.5219 26.2467 30.4553 26.015C30.3886 25.7817 30.3553 25.5075 30.3553 25.1925C30.3553 24.8758 30.3886 24.6017 30.4553 24.37C30.5219 24.1383 30.6144 23.9467 30.7328 23.795C30.8511 23.6433 30.9903 23.5308 31.1503 23.4575C31.3119 23.3825 31.4869 23.345 31.6753 23.345C31.8636 23.345 32.0386 23.3825 32.2003 23.4575C32.3636 23.5308 32.5044 23.6433 32.6228 23.795C32.7428 23.9467 32.8361 24.1383 32.9028 24.37C32.9711 24.6017 33.0053 24.8758 33.0053 25.1925ZM32.3678 25.1925C32.3678 24.9308 32.3486 24.7142 32.3103 24.5425C32.2719 24.3708 32.2203 24.2342 32.1553 24.1325C32.0919 24.0308 32.0186 23.96 31.9353 23.92C31.8519 23.8783 31.7653 23.8575 31.6753 23.8575C31.5869 23.8575 31.5011 23.8783 31.4178 23.92C31.3361 23.96 31.2636 24.0308 31.2003 24.1325C31.1369 24.2342 31.0861 24.3708 31.0478 24.5425C31.0111 24.7142 30.9928 24.9308 30.9928 25.1925C30.9928 25.4542 31.0111 25.6708 31.0478 25.8425C31.0861 26.0142 31.1369 26.1508 31.2003 26.2525C31.2636 26.3542 31.3361 26.4258 31.4178 26.4675C31.5011 26.5075 31.5869 26.5275 31.6753 26.5275C31.7653 26.5275 31.8519 26.5075 31.9353 26.4675C32.0186 26.4258 32.0919 26.3542 32.1553 26.2525C32.2203 26.1508 32.2719 26.0142 32.3103 25.8425C32.3486 25.6708 32.3678 25.4542 32.3678 25.1925ZM35.3832 26.425C35.4498 26.425 35.5023 26.4442 35.5407 26.4825C35.5807 26.5192 35.6007 26.5683 35.6007 26.63V27H33.1207V26.795C33.1207 26.7533 33.129 26.71 33.1457 26.665C33.164 26.6183 33.1923 26.5767 33.2307 26.54L34.3282 25.44C34.4198 25.3467 34.5015 25.2575 34.5732 25.1725C34.6465 25.0875 34.7073 25.0033 34.7557 24.92C34.804 24.8367 34.8407 24.7525 34.8657 24.6675C34.8923 24.5808 34.9057 24.49 34.9057 24.395C34.9057 24.3083 34.8932 24.2325 34.8682 24.1675C34.8432 24.1008 34.8073 24.045 34.7607 24C34.7157 23.955 34.6607 23.9217 34.5957 23.9C34.5323 23.8767 34.4607 23.865 34.3807 23.865C34.3073 23.865 34.239 23.8758 34.1757 23.8975C34.114 23.9175 34.059 23.9467 34.0107 23.985C33.9623 24.0217 33.9215 24.065 33.8882 24.115C33.8548 24.165 33.8298 24.22 33.8132 24.28C33.7848 24.3567 33.7482 24.4075 33.7032 24.4325C33.6582 24.4575 33.5932 24.4633 33.5082 24.45L33.1832 24.3925C33.2082 24.2192 33.2565 24.0675 33.3282 23.9375C33.3998 23.8058 33.489 23.6967 33.5957 23.61C33.704 23.5217 33.8273 23.4558 33.9657 23.4125C34.1057 23.3675 34.2557 23.345 34.4157 23.345C34.5823 23.345 34.7348 23.37 34.8732 23.42C35.0115 23.4683 35.1298 23.5375 35.2282 23.6275C35.3265 23.7175 35.4032 23.8258 35.4582 23.9525C35.5132 24.0792 35.5407 24.22 35.5407 24.375C35.5407 24.5083 35.5207 24.6317 35.4807 24.745C35.4423 24.8583 35.3898 24.9667 35.3232 25.07C35.2582 25.1733 35.1815 25.2733 35.0932 25.37C35.0048 25.4667 34.9123 25.565 34.8157 25.665L34.0007 26.4975C34.079 26.4742 34.1565 26.4567 34.2332 26.445C34.3115 26.4317 34.3857 26.425 34.4557 26.425H35.3832ZM38.4061 25.1925C38.4061 25.5075 38.3719 25.7817 38.3036 26.015C38.2369 26.2467 38.1436 26.4383 38.0236 26.59C37.9052 26.7417 37.7644 26.855 37.6011 26.93C37.4394 27.0033 37.2644 27.04 37.0761 27.04C36.8877 27.04 36.7127 27.0033 36.5511 26.93C36.3911 26.855 36.2519 26.7417 36.1336 26.59C36.0152 26.4383 35.9227 26.2467 35.8561 26.015C35.7894 25.7817 35.7561 25.5075 35.7561 25.1925C35.7561 24.8758 35.7894 24.6017 35.8561 24.37C35.9227 24.1383 36.0152 23.9467 36.1336 23.795C36.2519 23.6433 36.3911 23.5308 36.5511 23.4575C36.7127 23.3825 36.8877 23.345 37.0761 23.345C37.2644 23.345 37.4394 23.3825 37.6011 23.4575C37.7644 23.5308 37.9052 23.6433 38.0236 23.795C38.1436 23.9467 38.2369 24.1383 38.3036 24.37C38.3719 24.6017 38.4061 24.8758 38.4061 25.1925ZM37.7686 25.1925C37.7686 24.9308 37.7494 24.7142 37.7111 24.5425C37.6727 24.3708 37.6211 24.2342 37.5561 24.1325C37.4927 24.0308 37.4194 23.96 37.3361 23.92C37.2527 23.8783 37.1661 23.8575 37.0761 23.8575C36.9877 23.8575 36.9019 23.8783 36.8186 23.92C36.7369 23.96 36.6644 24.0308 36.6011 24.1325C36.5377 24.2342 36.4869 24.3708 36.4486 24.5425C36.4119 24.7142 36.3936 24.9308 36.3936 25.1925C36.3936 25.4542 36.4119 25.6708 36.4486 25.8425C36.4869 26.0142 36.5377 26.1508 36.6011 26.2525C36.6644 26.3542 36.7369 26.4258 36.8186 26.4675C36.9019 26.5075 36.9877 26.5275 37.0761 26.5275C37.1661 26.5275 37.2527 26.5075 37.3361 26.4675C37.4194 26.4258 37.4927 26.3542 37.5561 26.2525C37.6211 26.1508 37.6727 26.0142 37.7111 25.8425C37.7494 25.6708 37.7686 25.4542 37.7686 25.1925Z" fill="#CD2A00"/>
<defs>
<filter id="filter0_dd" x="0.666667" y="0.833333" width="56.6667" height="51.6667" filterUnits="userSpaceOnUse" color-interpolation-filters="sRGB">
<feFlood flood-opacity="0" result="BackgroundImageFix"/>
<feColorMatrix in="SourceAlpha" type="matrix" values="0 0 0 0 0 0 0 0 0 0 0 0 0 0 0 0 0 0 127 0"/>
<feOffset dy="5.16667"/>
<feGaussianBlur stdDeviation="5.16667"/>
<feColorMatrix type="matrix" values="0 0 0 0 0.196487 0 0 0 0 0.196487 0 0 0 0 0.279476 0 0 0 0.06 0"/>
<feBlend mode="multiply" in2="BackgroundImageFix" result="effect1_dropShadow"/>
<feColorMatrix in="SourceAlpha" type="matrix" values="0 0 0 0 0 0 0 0 0 0 0 0 0 0 0 0 0 0 127 0"/>
<feOffset dy="5.16667"/>
<feGaussianBlur stdDeviation="2.58333"/>
<feColorMatrix type="matrix" values="0 0 0 0 0.196487 0 0 0 0 0.196487 0 0 0 0 0.279476 0 0 0 0.08 0"/>
<feBlend mode="multiply" in2="effect1_dropShadow" result="effect2_dropShadow"/>
<feBlend mode="normal" in="SourceGraphic" in2="effect2_dropShadow" result="shape"/>
</filter>
</defs>
</svg>
