<svg width="34" height="35" viewBox="0 0 34 35" fill="none" xmlns="http://www.w3.org/2000/svg">
<path d="M27.7139 20.9283C27.7139 21.5629 27.4618 22.1715 27.0131 22.6203C26.5643 23.069 25.9557 23.3211 25.3211 23.3211H10.9641L6.17847 28.1068V8.96415C6.17847 8.32953 6.43057 7.7209 6.87931 7.27216C7.32805 6.82342 7.93668 6.57132 8.57129 6.57132H25.3211C25.9557 6.57132 26.5643 6.82342 27.0131 7.27216C27.4618 7.7209 27.7139 8.32953 27.7139 8.96415V20.9283Z"  stroke-width="1.19641" stroke-linecap="round" stroke-linejoin="round"/>
<path d="M18.3956 16.3956C18.2078 16.5971 17.9814 16.7587 17.7298 16.8708C17.4782 16.9829 17.2066 17.0432 16.9312 17.0481C16.6558 17.0529 16.3823 17.0023 16.1269 16.8991C15.8715 16.7959 15.6395 16.6424 15.4448 16.4476C15.25 16.2529 15.0965 16.0209 14.9933 15.7655C14.8902 15.5101 14.8395 15.2366 14.8444 14.9612C14.8492 14.6858 14.9095 14.4142 15.0216 14.1626C15.1337 13.911 15.2953 13.6846 15.4968 13.4968M9.4259 7.4259L24.4665 22.4665M21.0072 19.0072C19.8385 19.898 18.4155 20.3915 16.9462 20.4155C12.1606 20.4155 9.4259 14.9462 9.4259 14.9462C10.2763 13.3614 11.4558 11.9768 12.8852 10.8852L21.0072 19.0072ZM15.5105 9.64098C15.9811 9.53082 16.4629 9.47576 16.9462 9.4769C21.7319 9.4769 24.4665 14.9462 24.4665 14.9462C24.0515 15.7226 23.5566 16.4535 22.9898 17.1271L15.5105 9.64098Z"  stroke-width="1.19641" stroke-linecap="round" stroke-linejoin="round"/>
</svg>
